<mxfile host="app.diagrams.net" agent="Mozilla/5.0 (Macintosh; Intel Mac OS X 10.15; rv:143.0) Gecko/20100101 Firefox/143.0" version="28.2.3">
  <diagram name="Страница — 1" id="CxuiR16M626pglL5mNKK">
    <mxGraphModel dx="1426" dy="720" grid="1" gridSize="10" guides="1" tooltips="1" connect="1" arrows="1" fold="1" page="1" pageScale="1" pageWidth="827" pageHeight="1169" math="0" shadow="0">
      <root>
        <mxCell id="0" />
        <mxCell id="1" parent="0" />
        <mxCell id="3ax4N3x_3KE-35HvTLDt-5" value="" style="rounded=0;whiteSpace=wrap;html=1;" parent="1" vertex="1">
          <mxGeometry x="330" y="30" width="420" height="1000" as="geometry" />
        </mxCell>
        <mxCell id="fxRQYrkzGcDn-pYRkI0x-4" style="edgeStyle=orthogonalEdgeStyle;rounded=0;orthogonalLoop=1;jettySize=auto;html=1;entryX=0;entryY=0.5;entryDx=0;entryDy=0;" edge="1" parent="1" source="3ax4N3x_3KE-35HvTLDt-1" target="fxRQYrkzGcDn-pYRkI0x-2">
          <mxGeometry relative="1" as="geometry" />
        </mxCell>
        <mxCell id="fxRQYrkzGcDn-pYRkI0x-5" style="edgeStyle=orthogonalEdgeStyle;rounded=0;orthogonalLoop=1;jettySize=auto;html=1;entryX=0;entryY=0.5;entryDx=0;entryDy=0;" edge="1" parent="1" source="3ax4N3x_3KE-35HvTLDt-1" target="fxRQYrkzGcDn-pYRkI0x-3">
          <mxGeometry relative="1" as="geometry" />
        </mxCell>
        <mxCell id="fxRQYrkzGcDn-pYRkI0x-38" style="edgeStyle=orthogonalEdgeStyle;rounded=0;orthogonalLoop=1;jettySize=auto;html=1;endArrow=block;endFill=0;" edge="1" parent="1">
          <mxGeometry relative="1" as="geometry">
            <mxPoint x="255" y="160" as="targetPoint" />
            <mxPoint x="255" y="360" as="sourcePoint" />
          </mxGeometry>
        </mxCell>
        <mxCell id="3ax4N3x_3KE-35HvTLDt-1" value="Гость" style="shape=umlActor;verticalLabelPosition=bottom;verticalAlign=top;html=1;outlineConnect=0;fontSize=10;" parent="1" vertex="1">
          <mxGeometry x="240" y="379" width="30" height="60" as="geometry" />
        </mxCell>
        <mxCell id="fxRQYrkzGcDn-pYRkI0x-2" value="Регистрация" style="ellipse;whiteSpace=wrap;html=1;" vertex="1" parent="1">
          <mxGeometry x="420" y="369" width="90" height="50" as="geometry" />
        </mxCell>
        <mxCell id="fxRQYrkzGcDn-pYRkI0x-3" value="Авторизация" style="ellipse;whiteSpace=wrap;html=1;" vertex="1" parent="1">
          <mxGeometry x="420" y="429" width="90" height="50" as="geometry" />
        </mxCell>
        <mxCell id="fxRQYrkzGcDn-pYRkI0x-10" style="edgeStyle=orthogonalEdgeStyle;rounded=0;orthogonalLoop=1;jettySize=auto;html=1;entryX=1;entryY=0.5;entryDx=0;entryDy=0;dashed=1;" edge="1" parent="1" source="fxRQYrkzGcDn-pYRkI0x-8" target="fxRQYrkzGcDn-pYRkI0x-2">
          <mxGeometry relative="1" as="geometry" />
        </mxCell>
        <mxCell id="fxRQYrkzGcDn-pYRkI0x-11" style="edgeStyle=orthogonalEdgeStyle;rounded=0;orthogonalLoop=1;jettySize=auto;html=1;entryX=1;entryY=0.5;entryDx=0;entryDy=0;dashed=1;" edge="1" parent="1" source="fxRQYrkzGcDn-pYRkI0x-8" target="fxRQYrkzGcDn-pYRkI0x-3">
          <mxGeometry relative="1" as="geometry">
            <Array as="points">
              <mxPoint x="555" y="409" />
              <mxPoint x="555" y="454" />
            </Array>
          </mxGeometry>
        </mxCell>
        <mxCell id="fxRQYrkzGcDn-pYRkI0x-13" value="extend" style="edgeLabel;html=1;align=center;verticalAlign=middle;resizable=0;points=[];" vertex="1" connectable="0" parent="fxRQYrkzGcDn-pYRkI0x-11">
          <mxGeometry x="-0.4963" y="2" relative="1" as="geometry">
            <mxPoint x="14" y="-17" as="offset" />
          </mxGeometry>
        </mxCell>
        <mxCell id="fxRQYrkzGcDn-pYRkI0x-8" value="Совершить действие с помощью почты и пароля" style="ellipse;whiteSpace=wrap;html=1;" vertex="1" parent="1">
          <mxGeometry x="600" y="369" width="120" height="80" as="geometry" />
        </mxCell>
        <mxCell id="fxRQYrkzGcDn-pYRkI0x-15" style="edgeStyle=orthogonalEdgeStyle;rounded=0;orthogonalLoop=1;jettySize=auto;html=1;entryX=1;entryY=0.5;entryDx=0;entryDy=0;dashed=1;" edge="1" parent="1" source="fxRQYrkzGcDn-pYRkI0x-9" target="fxRQYrkzGcDn-pYRkI0x-3">
          <mxGeometry relative="1" as="geometry" />
        </mxCell>
        <mxCell id="fxRQYrkzGcDn-pYRkI0x-16" value="extend" style="edgeLabel;html=1;align=center;verticalAlign=middle;resizable=0;points=[];" vertex="1" connectable="0" parent="fxRQYrkzGcDn-pYRkI0x-15">
          <mxGeometry x="-0.6056" relative="1" as="geometry">
            <mxPoint y="-10" as="offset" />
          </mxGeometry>
        </mxCell>
        <mxCell id="fxRQYrkzGcDn-pYRkI0x-9" value="Совершить действие через IdP" style="ellipse;whiteSpace=wrap;html=1;" vertex="1" parent="1">
          <mxGeometry x="600" y="459" width="120" height="80" as="geometry" />
        </mxCell>
        <mxCell id="fxRQYrkzGcDn-pYRkI0x-19" style="edgeStyle=orthogonalEdgeStyle;rounded=0;orthogonalLoop=1;jettySize=auto;html=1;entryX=0;entryY=0.5;entryDx=0;entryDy=0;" edge="1" parent="1" source="fxRQYrkzGcDn-pYRkI0x-17" target="fxRQYrkzGcDn-pYRkI0x-18">
          <mxGeometry relative="1" as="geometry" />
        </mxCell>
        <mxCell id="fxRQYrkzGcDn-pYRkI0x-21" style="edgeStyle=orthogonalEdgeStyle;rounded=0;orthogonalLoop=1;jettySize=auto;html=1;entryX=0;entryY=0.5;entryDx=0;entryDy=0;" edge="1" parent="1" source="fxRQYrkzGcDn-pYRkI0x-17" target="fxRQYrkzGcDn-pYRkI0x-20">
          <mxGeometry relative="1" as="geometry" />
        </mxCell>
        <mxCell id="fxRQYrkzGcDn-pYRkI0x-17" value="Анонимный пользователь" style="shape=umlActor;verticalLabelPosition=bottom;verticalAlign=top;html=1;outlineConnect=0;fontSize=10;" vertex="1" parent="1">
          <mxGeometry x="240" y="70" width="30" height="60" as="geometry" />
        </mxCell>
        <mxCell id="fxRQYrkzGcDn-pYRkI0x-18" value="Просмотр видео-трансляций" style="ellipse;whiteSpace=wrap;html=1;" vertex="1" parent="1">
          <mxGeometry x="400" y="50" width="90" height="50" as="geometry" />
        </mxCell>
        <mxCell id="fxRQYrkzGcDn-pYRkI0x-20" value="Поиск видео-трансляций" style="ellipse;whiteSpace=wrap;html=1;" vertex="1" parent="1">
          <mxGeometry x="400" y="120" width="90" height="50" as="geometry" />
        </mxCell>
        <mxCell id="fxRQYrkzGcDn-pYRkI0x-30" style="edgeStyle=orthogonalEdgeStyle;rounded=0;orthogonalLoop=1;jettySize=auto;html=1;entryX=1;entryY=0.5;entryDx=0;entryDy=0;dashed=1;" edge="1" parent="1" source="fxRQYrkzGcDn-pYRkI0x-22" target="fxRQYrkzGcDn-pYRkI0x-20">
          <mxGeometry relative="1" as="geometry" />
        </mxCell>
        <mxCell id="fxRQYrkzGcDn-pYRkI0x-35" value="extend" style="edgeLabel;html=1;align=center;verticalAlign=middle;resizable=0;points=[];" vertex="1" connectable="0" parent="fxRQYrkzGcDn-pYRkI0x-30">
          <mxGeometry x="-0.6917" y="-1" relative="1" as="geometry">
            <mxPoint as="offset" />
          </mxGeometry>
        </mxCell>
        <mxCell id="fxRQYrkzGcDn-pYRkI0x-22" value="По жанру" style="ellipse;whiteSpace=wrap;html=1;" vertex="1" parent="1">
          <mxGeometry x="590" y="180" width="90" height="50" as="geometry" />
        </mxCell>
        <mxCell id="fxRQYrkzGcDn-pYRkI0x-31" style="edgeStyle=orthogonalEdgeStyle;rounded=0;orthogonalLoop=1;jettySize=auto;html=1;entryX=1;entryY=0.5;entryDx=0;entryDy=0;dashed=1;" edge="1" parent="1" source="fxRQYrkzGcDn-pYRkI0x-23" target="fxRQYrkzGcDn-pYRkI0x-20">
          <mxGeometry relative="1" as="geometry" />
        </mxCell>
        <mxCell id="fxRQYrkzGcDn-pYRkI0x-34" value="extend" style="edgeLabel;html=1;align=center;verticalAlign=middle;resizable=0;points=[];" vertex="1" connectable="0" parent="fxRQYrkzGcDn-pYRkI0x-31">
          <mxGeometry x="-0.7758" y="3" relative="1" as="geometry">
            <mxPoint as="offset" />
          </mxGeometry>
        </mxCell>
        <mxCell id="fxRQYrkzGcDn-pYRkI0x-23" value="По категории" style="ellipse;whiteSpace=wrap;html=1;" vertex="1" parent="1">
          <mxGeometry x="590" y="240" width="90" height="50" as="geometry" />
        </mxCell>
        <mxCell id="fxRQYrkzGcDn-pYRkI0x-29" style="edgeStyle=orthogonalEdgeStyle;rounded=0;orthogonalLoop=1;jettySize=auto;html=1;entryX=1;entryY=0.5;entryDx=0;entryDy=0;dashed=1;" edge="1" parent="1" source="fxRQYrkzGcDn-pYRkI0x-24" target="fxRQYrkzGcDn-pYRkI0x-20">
          <mxGeometry relative="1" as="geometry" />
        </mxCell>
        <mxCell id="fxRQYrkzGcDn-pYRkI0x-36" value="extend" style="edgeLabel;html=1;align=center;verticalAlign=middle;resizable=0;points=[];" vertex="1" connectable="0" parent="fxRQYrkzGcDn-pYRkI0x-29">
          <mxGeometry x="-0.5067" y="4" relative="1" as="geometry">
            <mxPoint as="offset" />
          </mxGeometry>
        </mxCell>
        <mxCell id="fxRQYrkzGcDn-pYRkI0x-24" value="По имени пользователя" style="ellipse;whiteSpace=wrap;html=1;" vertex="1" parent="1">
          <mxGeometry x="590" y="120" width="90" height="50" as="geometry" />
        </mxCell>
        <mxCell id="fxRQYrkzGcDn-pYRkI0x-32" style="edgeStyle=orthogonalEdgeStyle;rounded=0;orthogonalLoop=1;jettySize=auto;html=1;entryX=1;entryY=0.5;entryDx=0;entryDy=0;dashed=1;" edge="1" parent="1" source="fxRQYrkzGcDn-pYRkI0x-26" target="fxRQYrkzGcDn-pYRkI0x-20">
          <mxGeometry relative="1" as="geometry" />
        </mxCell>
        <mxCell id="fxRQYrkzGcDn-pYRkI0x-33" value="extend" style="edgeLabel;html=1;align=center;verticalAlign=middle;resizable=0;points=[];" vertex="1" connectable="0" parent="fxRQYrkzGcDn-pYRkI0x-32">
          <mxGeometry x="-0.7881" y="1" relative="1" as="geometry">
            <mxPoint as="offset" />
          </mxGeometry>
        </mxCell>
        <mxCell id="fxRQYrkzGcDn-pYRkI0x-26" value="По названию трансляции" style="ellipse;whiteSpace=wrap;html=1;" vertex="1" parent="1">
          <mxGeometry x="590" y="300" width="90" height="50" as="geometry" />
        </mxCell>
        <mxCell id="fxRQYrkzGcDn-pYRkI0x-28" style="edgeStyle=orthogonalEdgeStyle;rounded=0;orthogonalLoop=1;jettySize=auto;html=1;entryX=1;entryY=0.5;entryDx=0;entryDy=0;dashed=1;" edge="1" parent="1" source="fxRQYrkzGcDn-pYRkI0x-27" target="fxRQYrkzGcDn-pYRkI0x-18">
          <mxGeometry relative="1" as="geometry" />
        </mxCell>
        <mxCell id="fxRQYrkzGcDn-pYRkI0x-37" value="extend" style="edgeLabel;html=1;align=center;verticalAlign=middle;resizable=0;points=[];" vertex="1" connectable="0" parent="fxRQYrkzGcDn-pYRkI0x-28">
          <mxGeometry x="-0.1067" relative="1" as="geometry">
            <mxPoint as="offset" />
          </mxGeometry>
        </mxCell>
        <mxCell id="fxRQYrkzGcDn-pYRkI0x-27" value="Менять настройки видео" style="ellipse;whiteSpace=wrap;html=1;" vertex="1" parent="1">
          <mxGeometry x="590" y="50" width="90" height="50" as="geometry" />
        </mxCell>
        <mxCell id="fxRQYrkzGcDn-pYRkI0x-46" style="edgeStyle=orthogonalEdgeStyle;rounded=0;orthogonalLoop=1;jettySize=auto;html=1;entryX=0;entryY=0.5;entryDx=0;entryDy=0;" edge="1" parent="1" source="fxRQYrkzGcDn-pYRkI0x-39" target="fxRQYrkzGcDn-pYRkI0x-45">
          <mxGeometry relative="1" as="geometry">
            <Array as="points">
              <mxPoint x="360" y="640" />
              <mxPoint x="360" y="600" />
            </Array>
          </mxGeometry>
        </mxCell>
        <mxCell id="fxRQYrkzGcDn-pYRkI0x-52" style="edgeStyle=orthogonalEdgeStyle;rounded=0;orthogonalLoop=1;jettySize=auto;html=1;entryX=0;entryY=0.5;entryDx=0;entryDy=0;" edge="1" parent="1" source="fxRQYrkzGcDn-pYRkI0x-39" target="fxRQYrkzGcDn-pYRkI0x-51">
          <mxGeometry relative="1" as="geometry">
            <Array as="points">
              <mxPoint x="360" y="640" />
              <mxPoint x="360" y="680" />
            </Array>
          </mxGeometry>
        </mxCell>
        <mxCell id="fxRQYrkzGcDn-pYRkI0x-55" style="edgeStyle=orthogonalEdgeStyle;rounded=0;orthogonalLoop=1;jettySize=auto;html=1;entryX=0;entryY=0.5;entryDx=0;entryDy=0;" edge="1" parent="1" source="fxRQYrkzGcDn-pYRkI0x-39" target="fxRQYrkzGcDn-pYRkI0x-54">
          <mxGeometry relative="1" as="geometry">
            <Array as="points">
              <mxPoint x="360" y="640" />
              <mxPoint x="360" y="770" />
            </Array>
          </mxGeometry>
        </mxCell>
        <mxCell id="fxRQYrkzGcDn-pYRkI0x-57" style="edgeStyle=orthogonalEdgeStyle;rounded=0;orthogonalLoop=1;jettySize=auto;html=1;entryX=0;entryY=0.5;entryDx=0;entryDy=0;" edge="1" parent="1" source="fxRQYrkzGcDn-pYRkI0x-39" target="fxRQYrkzGcDn-pYRkI0x-56">
          <mxGeometry relative="1" as="geometry">
            <Array as="points">
              <mxPoint x="360" y="640" />
              <mxPoint x="360" y="850" />
            </Array>
          </mxGeometry>
        </mxCell>
        <mxCell id="fxRQYrkzGcDn-pYRkI0x-61" style="edgeStyle=orthogonalEdgeStyle;rounded=0;orthogonalLoop=1;jettySize=auto;html=1;entryX=0;entryY=0.5;entryDx=0;entryDy=0;" edge="1" parent="1" source="fxRQYrkzGcDn-pYRkI0x-39" target="fxRQYrkzGcDn-pYRkI0x-58">
          <mxGeometry relative="1" as="geometry">
            <Array as="points">
              <mxPoint x="360" y="640" />
              <mxPoint x="360" y="930" />
            </Array>
          </mxGeometry>
        </mxCell>
        <mxCell id="fxRQYrkzGcDn-pYRkI0x-39" value="Пользователь" style="shape=umlActor;verticalLabelPosition=bottom;verticalAlign=top;html=1;outlineConnect=0;fontSize=10;" vertex="1" parent="1">
          <mxGeometry x="240" y="610" width="30" height="60" as="geometry" />
        </mxCell>
        <mxCell id="fxRQYrkzGcDn-pYRkI0x-44" style="edgeStyle=orthogonalEdgeStyle;rounded=0;orthogonalLoop=1;jettySize=auto;html=1;endArrow=block;endFill=0;" edge="1" parent="1">
          <mxGeometry relative="1" as="geometry">
            <mxPoint x="255" y="160" as="targetPoint" />
            <mxPoint x="255" y="590" as="sourcePoint" />
            <Array as="points">
              <mxPoint x="255" y="500" />
              <mxPoint x="200" y="500" />
              <mxPoint x="200" y="290" />
              <mxPoint x="255" y="290" />
            </Array>
          </mxGeometry>
        </mxCell>
        <mxCell id="fxRQYrkzGcDn-pYRkI0x-45" value="Управлять подпиской на пользователей" style="ellipse;whiteSpace=wrap;html=1;" vertex="1" parent="1">
          <mxGeometry x="390" y="570" width="120" height="60" as="geometry" />
        </mxCell>
        <mxCell id="fxRQYrkzGcDn-pYRkI0x-49" style="edgeStyle=orthogonalEdgeStyle;rounded=0;orthogonalLoop=1;jettySize=auto;html=1;entryX=1;entryY=0.5;entryDx=0;entryDy=0;dashed=1;" edge="1" parent="1" source="fxRQYrkzGcDn-pYRkI0x-47" target="fxRQYrkzGcDn-pYRkI0x-45">
          <mxGeometry relative="1" as="geometry" />
        </mxCell>
        <mxCell id="fxRQYrkzGcDn-pYRkI0x-73" value="extend" style="edgeLabel;html=1;align=center;verticalAlign=middle;resizable=0;points=[];" vertex="1" connectable="0" parent="fxRQYrkzGcDn-pYRkI0x-49">
          <mxGeometry x="-0.3694" y="-2" relative="1" as="geometry">
            <mxPoint as="offset" />
          </mxGeometry>
        </mxCell>
        <mxCell id="fxRQYrkzGcDn-pYRkI0x-47" value="Подписываться" style="ellipse;whiteSpace=wrap;html=1;" vertex="1" parent="1">
          <mxGeometry x="590" y="560" width="90" height="50" as="geometry" />
        </mxCell>
        <mxCell id="fxRQYrkzGcDn-pYRkI0x-50" style="edgeStyle=orthogonalEdgeStyle;rounded=0;orthogonalLoop=1;jettySize=auto;html=1;entryX=1;entryY=0.5;entryDx=0;entryDy=0;dashed=1;" edge="1" parent="1" source="fxRQYrkzGcDn-pYRkI0x-48" target="fxRQYrkzGcDn-pYRkI0x-45">
          <mxGeometry relative="1" as="geometry" />
        </mxCell>
        <mxCell id="fxRQYrkzGcDn-pYRkI0x-74" value="&lt;div&gt;extend&lt;/div&gt;" style="edgeLabel;html=1;align=center;verticalAlign=middle;resizable=0;points=[];" vertex="1" connectable="0" parent="fxRQYrkzGcDn-pYRkI0x-50">
          <mxGeometry x="-0.6762" relative="1" as="geometry">
            <mxPoint as="offset" />
          </mxGeometry>
        </mxCell>
        <mxCell id="fxRQYrkzGcDn-pYRkI0x-48" value="Отписываться" style="ellipse;whiteSpace=wrap;html=1;" vertex="1" parent="1">
          <mxGeometry x="590" y="630" width="90" height="50" as="geometry" />
        </mxCell>
        <mxCell id="fxRQYrkzGcDn-pYRkI0x-51" value="Писать сообщения в чат трансляции" style="ellipse;whiteSpace=wrap;html=1;" vertex="1" parent="1">
          <mxGeometry x="392.5" y="640" width="115" height="80" as="geometry" />
        </mxCell>
        <mxCell id="fxRQYrkzGcDn-pYRkI0x-54" value="Редактировать профиль" style="ellipse;whiteSpace=wrap;html=1;" vertex="1" parent="1">
          <mxGeometry x="385" y="740" width="120" height="60" as="geometry" />
        </mxCell>
        <mxCell id="fxRQYrkzGcDn-pYRkI0x-56" value="Управлять клипами" style="ellipse;whiteSpace=wrap;html=1;" vertex="1" parent="1">
          <mxGeometry x="385" y="820" width="120" height="60" as="geometry" />
        </mxCell>
        <mxCell id="fxRQYrkzGcDn-pYRkI0x-62" style="edgeStyle=orthogonalEdgeStyle;rounded=0;orthogonalLoop=1;jettySize=auto;html=1;entryX=0;entryY=0.5;entryDx=0;entryDy=0;dashed=1;" edge="1" parent="1" source="fxRQYrkzGcDn-pYRkI0x-58" target="fxRQYrkzGcDn-pYRkI0x-60">
          <mxGeometry relative="1" as="geometry">
            <Array as="points">
              <mxPoint x="540" y="930" />
              <mxPoint x="540" y="775" />
            </Array>
          </mxGeometry>
        </mxCell>
        <mxCell id="fxRQYrkzGcDn-pYRkI0x-63" value="include" style="edgeLabel;html=1;align=center;verticalAlign=middle;resizable=0;points=[];" vertex="1" connectable="0" parent="fxRQYrkzGcDn-pYRkI0x-62">
          <mxGeometry x="0.3522" y="-2" relative="1" as="geometry">
            <mxPoint y="23" as="offset" />
          </mxGeometry>
        </mxCell>
        <mxCell id="fxRQYrkzGcDn-pYRkI0x-69" style="edgeStyle=orthogonalEdgeStyle;rounded=0;orthogonalLoop=1;jettySize=auto;html=1;entryX=0;entryY=0.5;entryDx=0;entryDy=0;dashed=1;" edge="1" parent="1" source="fxRQYrkzGcDn-pYRkI0x-58" target="fxRQYrkzGcDn-pYRkI0x-66">
          <mxGeometry relative="1" as="geometry" />
        </mxCell>
        <mxCell id="fxRQYrkzGcDn-pYRkI0x-70" value="include" style="edgeLabel;html=1;align=center;verticalAlign=middle;resizable=0;points=[];" vertex="1" connectable="0" parent="fxRQYrkzGcDn-pYRkI0x-69">
          <mxGeometry x="-0.084" y="2" relative="1" as="geometry">
            <mxPoint as="offset" />
          </mxGeometry>
        </mxCell>
        <mxCell id="fxRQYrkzGcDn-pYRkI0x-71" style="edgeStyle=orthogonalEdgeStyle;rounded=0;orthogonalLoop=1;jettySize=auto;html=1;entryX=0;entryY=0.5;entryDx=0;entryDy=0;dashed=1;" edge="1" parent="1" source="fxRQYrkzGcDn-pYRkI0x-58" target="fxRQYrkzGcDn-pYRkI0x-65">
          <mxGeometry relative="1" as="geometry" />
        </mxCell>
        <mxCell id="fxRQYrkzGcDn-pYRkI0x-72" value="include" style="edgeLabel;html=1;align=center;verticalAlign=middle;resizable=0;points=[];" vertex="1" connectable="0" parent="fxRQYrkzGcDn-pYRkI0x-71">
          <mxGeometry x="0.6367" relative="1" as="geometry">
            <mxPoint x="-3" y="20" as="offset" />
          </mxGeometry>
        </mxCell>
        <mxCell id="fxRQYrkzGcDn-pYRkI0x-58" value="Проводить трансляции" style="ellipse;whiteSpace=wrap;html=1;" vertex="1" parent="1">
          <mxGeometry x="385" y="900" width="120" height="60" as="geometry" />
        </mxCell>
        <mxCell id="fxRQYrkzGcDn-pYRkI0x-60" value="Задавать параметры трансляции: название, жанр, категорию, теги, описание" style="ellipse;whiteSpace=wrap;html=1;" vertex="1" parent="1">
          <mxGeometry x="557.5" y="720" width="155" height="110" as="geometry" />
        </mxCell>
        <mxCell id="fxRQYrkzGcDn-pYRkI0x-65" value="Запускать/останавливать" style="ellipse;whiteSpace=wrap;html=1;" vertex="1" parent="1">
          <mxGeometry x="575" y="850" width="120" height="60" as="geometry" />
        </mxCell>
        <mxCell id="fxRQYrkzGcDn-pYRkI0x-66" value="Сохранять прошедшие трансляции" style="ellipse;whiteSpace=wrap;html=1;" vertex="1" parent="1">
          <mxGeometry x="575" y="930" width="120" height="60" as="geometry" />
        </mxCell>
      </root>
    </mxGraphModel>
  </diagram>
</mxfile>
